<svg width="40" height="40" viewBox="0 0 40 40" fill="none" xmlns="http://www.w3.org/2000/svg">
<path d="M21.0894 25.326C21.7834 25.272 22.416 24.918 22.8267 24.3533L29.0687 15.724C29.26 15.4593 29.2314 15.094 28.9994 14.862C28.7674 14.6306 28.402 14.602 28.1374 14.7926L19.5067 21.0366C18.944 21.446 18.59 22.0786 18.536 22.7726C18.482 23.4666 18.7333 24.146 19.2247 24.6373C19.672 25.0853 20.2753 25.3333 20.9027 25.3333C20.9647 25.3333 21.0267 25.3306 21.0894 25.326ZM19.8654 22.8766C19.8887 22.572 20.0447 22.294 20.29 22.1153L25.5547 18.3066L21.7473 23.57C21.5673 23.8173 21.2893 23.9726 20.9847 23.9966C20.6813 24.0166 20.3833 23.9113 20.1667 23.6946C19.952 23.4793 19.8414 23.1806 19.8654 22.8766Z" fill="#049CA6"/>
<path d="M36.0227 13.0427C36.016 13.0287 36.016 13.014 36.0087 13C36.0007 12.9867 35.988 12.9793 35.9794 12.9667C35.3054 11.8107 34.508 10.7353 33.6027 9.76067L35.0347 8.32933L35.9774 9.272L38.8054 6.44333L35.9774 3.61533L33.1487 6.44333L34.092 7.38667L32.66 8.818C31.6854 7.91267 30.6107 7.11467 29.454 6.44067C29.4414 6.432 29.434 6.41933 29.4207 6.41133C29.4067 6.40333 29.392 6.404 29.378 6.39667C27.316 5.20867 24.9994 4.41733 22.5294 4.12733V3.33333H23.5294C24.4487 3.33333 25.196 2.586 25.196 1.66667C25.196 0.747333 24.448 0 23.5287 0H17.5287C16.6094 0 15.862 0.747333 15.862 1.66667C15.862 2.586 16.6094 3.33333 17.5287 3.33333H18.5287V4.104C17.8087 4.18067 17.09 4.298 16.3794 4.46067C16.0207 4.54267 15.796 4.90067 15.8787 5.25933C15.9607 5.618 16.3187 5.84333 16.6774 5.76C17.2907 5.61933 17.91 5.51333 18.5307 5.442L19.246 5.38667C19.4647 5.37 19.666 5.358 19.862 5.34867V6.66667C19.862 7.03533 20.16 7.33333 20.5287 7.33333C20.8974 7.33333 21.1954 7.03533 21.1954 6.66667V5.35333C23.7027 5.46867 26.0654 6.142 28.166 7.25L27.5087 8.388C27.3247 8.70733 27.434 9.11467 27.7527 9.29867C27.8574 9.35933 27.972 9.388 28.0854 9.388C28.316 9.388 28.54 9.26867 28.6634 9.05467L29.3187 7.91933C31.4047 9.24267 33.1767 11.0147 34.5 13.1007L33.3647 13.756C33.0467 13.94 32.9374 14.3473 33.122 14.6667C33.246 14.8807 33.4694 15 33.7 15C33.8134 15 33.928 14.9713 34.0327 14.9107L35.1707 14.2533C36.294 16.384 36.9694 18.7853 37.07 21.3327H35.7534C35.3847 21.3327 35.0867 21.6307 35.0867 21.9993C35.0867 22.368 35.3847 22.666 35.7534 22.666H37.07C36.9694 25.2133 36.294 27.6147 35.1707 29.7453L34.0327 29.088C33.714 28.904 33.306 29.012 33.122 29.332C32.938 29.6513 33.0474 30.0587 33.366 30.2427L34.5014 30.898C33.178 32.984 31.406 34.756 29.32 36.0793L28.6647 34.944C28.48 34.624 28.0714 34.5153 27.754 34.7C27.4347 34.884 27.3254 35.292 27.51 35.6107L28.1674 36.7487C26.0667 37.8567 23.704 38.53 21.1967 38.6453V37.3333C21.1967 36.9647 20.8987 36.6667 20.53 36.6667C20.1614 36.6667 19.8634 36.9647 19.8634 37.3333V38.6507C18.7987 38.614 17.7307 38.4807 16.6794 38.2393C16.3207 38.1533 15.9627 38.3813 15.8807 38.74C15.798 39.0987 16.0227 39.4567 16.3814 39.5387C17.712 39.8453 19.0714 40 20.42 40C20.4527 40 20.484 39.998 20.5167 39.9973C20.5214 39.9973 20.5247 40 20.5287 40C20.534 40 20.5387 39.9967 20.544 39.9967C23.7487 39.9747 26.7554 39.1093 29.3567 37.6147C29.3774 37.6053 29.3994 37.6007 29.4194 37.5887C29.4327 37.5807 29.44 37.568 29.4527 37.5593C32.1454 35.99 34.3954 33.7427 35.968 31.052C35.9807 31.034 35.9967 31.02 36.008 31C36.016 30.986 36.0154 30.9713 36.022 30.9573C37.5447 28.3173 38.42 25.26 38.42 22C38.42 18.74 37.5447 15.6827 36.0227 13.0427ZM35.9767 5.50067L36.9194 6.44333L35.9767 7.38667L35.0334 6.44333L35.9767 5.50067ZM19.862 4.014V2H17.5287C17.3454 2 17.1954 1.85 17.1954 1.66667C17.1954 1.48333 17.3454 1.33333 17.5287 1.33333H23.5287C23.712 1.33333 23.862 1.48333 23.862 1.66667C23.862 1.85 23.712 2 23.5287 2H21.1954V4.014C20.9634 4.00467 20.742 4 20.5287 4C20.51 4 20.4887 4.00133 20.47 4.00133C20.4534 4.00133 20.4367 4 20.42 4C20.3107 4 20.2014 4.00733 20.092 4.00933C20.0147 4.01133 19.942 4.01067 19.862 4.014Z" fill="#049CA6"/>
<path d="M14.5287 9.33331H11.1954C10.8267 9.33331 10.5287 9.63131 10.5287 9.99998C10.5287 10.3686 10.8267 10.6666 11.1954 10.6666H14.5287C14.8974 10.6666 15.1954 10.3686 15.1954 9.99998C15.1954 9.63131 14.8974 9.33331 14.5287 9.33331Z" fill="#049CA6"/>
<path d="M14.5286 14H7.86198C7.49331 14 7.19531 14.298 7.19531 14.6667C7.19531 15.0353 7.49331 15.3333 7.86198 15.3333H14.5286C14.8973 15.3333 15.1953 15.0353 15.1953 14.6667C15.1953 14.298 14.8973 14 14.5286 14Z" fill="#049CA6"/>
<path d="M14.5286 18.6667H4.52861C4.15994 18.6667 3.86194 18.9647 3.86194 19.3334C3.86194 19.702 4.15994 20 4.52861 20H14.5286C14.8973 20 15.1953 19.702 15.1953 19.3334C15.1953 18.9647 14.8973 18.6667 14.5286 18.6667Z" fill="#049CA6"/>
<path d="M14.5286 23.3333H1.86198C1.49331 23.3333 1.19531 23.6313 1.19531 24C1.19531 24.3686 1.49331 24.6666 1.86198 24.6666H14.5286C14.8973 24.6666 15.1953 24.3686 15.1953 24C15.1953 23.6313 14.8973 23.3333 14.5286 23.3333Z" fill="#049CA6"/>
<path d="M14.5286 28H5.86198C5.49331 28 5.19531 28.298 5.19531 28.6667C5.19531 29.0353 5.49331 29.3333 5.86198 29.3333H14.5286C14.8973 29.3333 15.1953 29.0353 15.1953 28.6667C15.1953 28.298 14.8973 28 14.5286 28Z" fill="#049CA6"/>
<path d="M14.5286 32.6667H9.86198C9.49331 32.6667 9.19531 32.9647 9.19531 33.3334C9.19531 33.702 9.49331 34 9.86198 34H14.5286C14.8973 34 15.1953 33.702 15.1953 33.3334C15.1953 32.9647 14.8973 32.6667 14.5286 32.6667Z" fill="#049CA6"/>
</svg>
