<svg width="30" height="30" viewBox="0 0 30 30" fill="none" xmlns="http://www.w3.org/2000/svg">
<g clip-path="url(#clip0_45_165)">
<path d="M11.4061 3.59923C11.7169 3.59923 11.9391 3.31452 11.8667 3.01809C11.8054 2.76655 11.5491 2.61286 11.298 2.67438C10.7602 2.80235 10.8532 3.59923 11.4061 3.59923Z" fill="#049CA6"/>
<path d="M20.3504 4.78287C20.3504 3.17085 17.3733 2.32745 14.4325 2.32745C13.9074 2.32745 13.3869 2.35388 12.8855 2.40603C12.628 2.4328 12.441 2.66325 12.4678 2.92071C12.4945 3.17817 12.7247 3.3659 12.9824 3.33848C14.5742 3.17296 16.6195 3.26958 18.1251 3.81848C19.0757 4.165 19.4129 4.55459 19.4129 4.78287C19.4129 5.01115 19.0756 5.40074 18.1251 5.74726C16.102 6.48483 12.7693 6.48718 10.7399 5.74726C9.78928 5.40074 9.45208 5.01115 9.45208 4.78287C9.45208 4.62689 9.59751 4.43869 9.86165 4.25301C10.0735 4.10412 10.1244 3.81174 9.97555 3.59993C9.82661 3.38811 9.53417 3.33719 9.32247 3.48602C8.65474 3.95547 8.51453 4.45035 8.51453 4.78287C8.51453 8.04265 20.3504 8.05461 20.3504 4.78287Z" fill="#049CA6"/>
<path d="M25.4862 14.8695C25.3306 14.6625 25.0366 14.6209 24.8299 14.7762C24.6229 14.9316 24.5811 15.2255 24.7366 15.4325C25.0458 15.8442 25.2027 16.2717 25.2027 16.703C25.2027 18.226 23.2629 19.5762 20.5406 20.193C21.9647 19.4723 23.302 18.2979 23.302 16.703C23.302 13.5833 23.3215 13.6753 23.2437 13.303C23.1908 13.0497 22.9425 12.8873 22.689 12.9401C22.4356 12.9931 22.2731 13.2415 22.326 13.4949C22.8034 15.7757 18.8935 17.7101 14.4325 17.7101C12.1144 17.7101 9.94796 17.1941 8.46525 16.368C14.1786 18.0311 21.5992 15.949 21.5992 12.162V10.4689C22.7054 9.65829 23.3021 8.67234 23.3021 7.621V4.78291C23.3021 0.435921 13.7408 -1.48963 8.2781 1.31547C6.52716 2.21464 5.56289 3.44598 5.56289 4.78291V6.4769C4.44779 7.29451 3.85999 8.27478 3.85999 9.3239V12.162C3.85999 13.2133 4.45664 14.1993 5.56289 15.0099C5.56289 16.7306 5.46199 17.277 5.96156 18.1526C5.69718 18.6161 5.56289 19.101 5.56289 19.598V25.2174C5.56289 29.5644 15.1242 31.49 20.5869 28.6849C22.3378 27.7857 23.302 26.5543 23.302 25.2174V23.0688C24.7643 22.3462 26.1402 21.16 26.1402 19.5412V16.703C26.1402 16.0641 25.9201 15.4472 25.4862 14.8695ZM22.3645 16.0384V16.703C22.3645 18.7873 18.7321 20.5482 14.4325 20.5482C11.0031 20.5482 7.99826 19.4279 6.92231 17.9169C6.90965 17.8949 6.89536 17.8738 6.87901 17.8538C6.43968 17.1998 6.50038 16.7772 6.50038 16.0386C9.69724 19.4932 19.1318 19.5173 22.3645 16.0384ZM22.3645 7.621C22.3645 8.99794 20.7341 9.92682 20.8679 9.83682C19.4134 10.8154 17.0463 11.4662 14.4325 11.4662C10.1328 11.4662 6.50038 9.70528 6.50038 7.621V6.95643C9.73837 10.441 19.1444 10.4218 22.3645 6.95643V7.621ZM14.4325 0.937715C18.7321 0.937715 22.3645 2.69862 22.3645 4.78291C22.3645 6.86719 18.7321 8.6281 14.4325 8.6281C10.1328 8.6281 6.50038 6.86719 6.50038 4.78291C6.50038 2.69862 10.1328 0.937715 14.4325 0.937715ZM5.56482 7.70519C5.67896 11.4602 13.0623 13.467 18.6969 11.827C17.2142 12.6531 15.0477 13.1691 12.7296 13.1691C7.22729 13.1691 2.98747 10.3076 5.56482 7.70519ZM4.79754 12.162V11.4974C8.08955 15.0401 17.5142 14.8985 20.6617 11.4977V12.162C20.6617 14.2463 17.0293 16.0072 12.7296 16.0072C8.42998 16.0072 4.79754 14.2463 4.79754 12.162ZM8.50293 20.2805C8.8123 21.3926 9.81905 22.3974 11.3694 23.1332C8.53896 22.5392 6.50038 21.1593 6.50038 19.5979C6.50038 19.3932 6.53636 19.1892 6.60667 18.9873C7.0409 19.4249 7.64465 19.8691 8.50293 20.2805ZM14.4325 29.0625C10.1328 29.0625 6.50038 27.3016 6.50038 25.2174V24.6096C8.5266 26.7901 12.739 27.4018 15.7397 27.1682C15.9978 27.1481 16.1908 26.9227 16.1706 26.6645C16.1506 26.4064 15.9252 26.2136 15.6669 26.2336C10.9198 26.6031 6.50038 24.7508 6.50038 22.436C6.50038 22.3564 6.50038 21.9088 6.50038 21.7714C8.56884 23.9974 12.9471 24.6327 16.191 24.2881C18.1295 24.4129 20.1742 24.2077 21.9662 23.6131C21.489 24.3058 20.6005 24.9357 19.3955 25.4144C19.155 25.51 19.0374 25.7825 19.133 26.0231C19.2291 26.2649 19.5023 26.3808 19.7417 26.2856C20.8605 25.8411 21.7529 25.2613 22.3646 24.6002V25.2173C22.3645 27.3016 18.7321 29.0625 14.4325 29.0625ZM25.2027 19.5411C25.2027 22.7582 16.9899 24.7381 11.8013 22.3007C10.886 21.8708 10.2001 21.3529 9.78765 20.7916C11.662 21.4042 13.8172 21.5969 15.8481 21.4255C18.8893 21.6838 23.1584 21.0765 25.2027 18.8766V19.5411Z" fill="#049CA6"/>
<path d="M17.7746 25.9142C17.5212 25.9693 17.3613 26.223 17.4215 26.4789C17.4811 26.732 17.7363 26.8855 17.9854 26.8277C18.2377 26.7695 18.395 26.5178 18.3368 26.2656C18.2786 26.0133 18.0269 25.8561 17.7746 25.9142Z" fill="#049CA6"/>
</g>
<defs>
<clipPath id="clip0_45_165">
<rect width="30" height="30" fill="white"/>
</clipPath>
</defs>
</svg>
