<svg width="30" height="30" viewBox="0 0 30 30" fill="none" xmlns="http://www.w3.org/2000/svg">
<g clip-path="url(#clip0_45_159)">
<path d="M7.90567 5.2988L8.5906 4.91735V13.3551C8.5906 13.5261 8.65603 13.6902 8.7725 13.8112C8.88897 13.9321 9.04694 14.0001 9.21166 14.0001H13.0129C13.1776 14.0001 13.3356 13.9321 13.452 13.8112C13.5685 13.6902 13.6339 13.5261 13.6339 13.3551V9.74028H16.3396V13.3551C16.3396 13.5261 16.405 13.6902 16.5215 13.8112C16.638 13.9321 16.7959 14.0001 16.9607 14.0001H20.7633C20.928 14.0001 21.086 13.9321 21.2024 13.8112C21.3189 13.6902 21.3843 13.5261 21.3843 13.3551V4.92029L22.0792 5.30249C22.1514 5.34379 22.2308 5.36976 22.3127 5.37889C22.3946 5.38802 22.4775 5.38012 22.5565 5.35566C22.6354 5.3312 22.7089 5.29066 22.7727 5.23641C22.8364 5.18216 22.8891 5.11528 22.9277 5.03966C22.9663 4.96405 22.99 4.88122 22.9974 4.79599C23.0049 4.71077 22.996 4.62485 22.9711 4.54325C22.9463 4.46165 22.9061 4.38599 22.8528 4.3207C22.7996 4.2554 22.7343 4.20176 22.6609 4.16291L15.2331 0.0759839C15.1432 0.0261375 15.0429 6.10352e-05 14.941 6.10352e-05C14.8391 6.10352e-05 14.7388 0.0261375 14.6489 0.0759839L7.31868 4.16217C7.17633 4.24457 7.07087 4.38178 7.02505 4.5442C6.97923 4.70661 6.99672 4.88123 7.07375 5.03038C7.15077 5.17952 7.28116 5.29126 7.43679 5.34147C7.59242 5.39169 7.76082 5.37636 7.90567 5.2988ZM14.9438 1.37699L20.1419 4.23699V12.7101H17.5817V9.09531C17.5817 8.92425 17.5163 8.7602 17.3998 8.63924C17.2833 8.51828 17.1254 8.45033 16.9607 8.45033H13.0129C12.8482 8.45033 12.6902 8.51828 12.5737 8.63924C12.4573 8.7602 12.3918 8.92425 12.3918 9.09531V12.7101H9.83271V4.2252L14.9438 1.37699Z" fill="#049CA6"/>
<path d="M29.9136 20.9204C29.876 20.863 29.8274 20.8136 29.7706 20.775C29.7139 20.7364 29.65 20.7094 29.5828 20.6956C29.5156 20.6817 29.4463 20.6813 29.3789 20.6942C29.3115 20.7072 29.2473 20.7334 29.1901 20.7712L28.422 21.2771L23.7136 14.2447L29.7497 10.5601C29.864 10.486 29.9449 10.3703 29.9751 10.2375C30.0053 10.1047 29.9826 9.96538 29.9116 9.84915C29.8406 9.73291 29.7271 9.64896 29.5952 9.61516C29.4633 9.58136 29.3234 9.60039 29.2053 9.66819L19.5204 15.5801C19.46 15.6171 19.4076 15.666 19.3667 15.7238C19.3257 15.7816 19.2969 15.8472 19.282 15.9165C19.2672 15.9858 19.2666 16.0574 19.2803 16.1269C19.2939 16.1964 19.3216 16.2625 19.3616 16.321L19.7273 16.855H14.5911C13.9915 16.8544 13.4054 17.0337 12.9088 17.3699L10.3716 16.7132L10.6403 16.3219C10.6803 16.2634 10.708 16.1973 10.7216 16.1278C10.7353 16.0583 10.7347 15.9867 10.7199 15.9174C10.705 15.8481 10.6762 15.7825 10.6352 15.7247C10.5943 15.6669 10.542 15.618 10.4815 15.581L0.796034 9.66789C0.67793 9.60009 0.538027 9.58107 0.406106 9.61486C0.274184 9.64866 0.160664 9.73261 0.0897082 9.84885C0.0187528 9.96508 -0.00403317 10.1044 0.0262008 10.2372C0.0564348 10.37 0.137301 10.4857 0.251585 10.5598L6.28768 14.2447L1.57898 21.2777L0.810958 20.7718C0.753709 20.7329 0.689299 20.7057 0.62147 20.6919C0.553641 20.6781 0.483746 20.678 0.415848 20.6914C0.34795 20.7049 0.283402 20.7317 0.225955 20.7703C0.168509 20.8089 0.119309 20.8586 0.0812158 20.9163C0.0431225 20.9741 0.0168951 21.0389 0.00405765 21.1069C-0.00877978 21.175 -0.00797136 21.2448 0.0064363 21.3125C0.020844 21.3803 0.0485634 21.4444 0.0879837 21.5013C0.127404 21.5582 0.177739 21.6067 0.236064 21.644L1.43361 22.4329L4.4639 24.4292C4.57824 24.5046 4.71763 24.5321 4.85204 24.5057C4.98644 24.4793 5.10508 24.4011 5.18237 24.288L5.86681 23.2928L10.1908 27.2768L12.4957 29.5053C12.7498 29.7808 13.102 29.9454 13.4763 29.9639C13.8506 29.9823 14.2172 29.853 14.4971 29.6039C14.6068 29.5034 14.6999 29.3861 14.7729 29.2564C14.9755 29.3955 15.2077 29.4856 15.4511 29.5196C15.6945 29.5536 15.9424 29.5305 16.1754 29.4521C16.4083 29.3738 16.6199 29.2423 16.7933 29.0682C16.9667 28.894 17.0972 28.682 17.1746 28.4487C17.4399 28.5384 17.7242 28.5563 17.9986 28.5005C18.273 28.4447 18.5278 28.3173 18.737 28.1311C18.9462 27.945 19.1024 27.7068 19.1897 27.4407C19.2771 27.1746 19.2924 26.8902 19.2342 26.6162C19.5754 26.5424 19.8829 26.3586 20.1094 26.0929C20.3359 25.8272 20.4689 25.4945 20.4878 25.1459C20.4899 25.1107 20.4839 25.0766 20.4837 25.0417L24.0032 23.097L24.8192 24.2886C24.8966 24.4015 25.0152 24.4795 25.1496 24.5058C25.2839 24.5321 25.4232 24.5046 25.5374 24.4292L28.5683 22.4326L29.7658 21.6437C29.8813 21.5673 29.9618 21.4483 29.9895 21.3126C30.0172 21.177 29.9899 21.0359 29.9136 20.9204ZM20.4425 17.8997L22.7161 21.2198L16.937 20.1843C16.5784 20.1199 16.2089 20.1969 15.906 20.3993L13.7568 21.832C13.3224 22.1188 12.8034 22.2492 12.285 22.2019C11.7666 22.1546 11.2798 21.9324 10.9045 21.5717C10.8457 21.5149 10.799 21.4469 10.7671 21.3717C10.7352 21.2964 10.7188 21.2156 10.7188 21.1339C10.7188 21.0521 10.7352 20.9713 10.7671 20.896C10.799 20.8208 10.8457 20.7528 10.9045 20.696L13.2207 18.454C13.5876 18.0976 14.0791 17.8987 14.5905 17.8997H20.4425ZM4.61135 23.2752L2.45147 21.8523L7.18017 14.7879L9.46662 16.1837L4.61135 23.2752ZM19.2574 25.4706C19.2029 25.5194 19.1392 25.557 19.0701 25.5811C19.0011 25.6053 18.9279 25.6156 18.8548 25.6115C18.7817 25.6073 18.7102 25.5888 18.6443 25.557C18.5784 25.5253 18.5193 25.4808 18.4706 25.4262L16.051 22.715C15.9581 22.6144 15.8293 22.5544 15.6926 22.5478C15.5558 22.5412 15.4219 22.5886 15.3197 22.6798C15.2175 22.771 15.1552 22.8987 15.1462 23.0353C15.1373 23.172 15.1823 23.3067 15.2717 23.4104L18.0856 26.5631C18.1361 26.6174 18.1753 26.6813 18.2008 26.7509C18.2263 26.8206 18.2377 26.8946 18.2343 26.9687C18.2309 27.0428 18.2127 27.1154 18.1808 27.1824C18.1489 27.2494 18.104 27.3094 18.0487 27.3588C17.9934 27.4082 17.9288 27.446 17.8586 27.4702C17.7885 27.4943 17.7142 27.5042 17.6402 27.4992C17.5662 27.4943 17.4939 27.4746 17.4276 27.4414C17.3613 27.4082 17.3022 27.3621 17.254 27.3058L16.86 26.8643L13.961 23.6164C13.9157 23.5638 13.8605 23.5208 13.7984 23.4899C13.7363 23.4589 13.6687 23.4406 13.5995 23.4361C13.5302 23.4315 13.4608 23.4408 13.3952 23.4634C13.3296 23.486 13.2692 23.5214 13.2174 23.5676C13.1657 23.6137 13.1236 23.6698 13.0938 23.7324C13.0639 23.795 13.0468 23.8629 13.0435 23.9322C13.0401 24.0015 13.0506 24.0708 13.0744 24.136C13.0981 24.2011 13.1346 24.261 13.1816 24.3119L16.077 27.5574L16.0791 27.5604C16.1279 27.6149 16.1654 27.6786 16.1896 27.7477C16.2138 27.8168 16.2241 27.8899 16.2199 27.963C16.2158 28.0361 16.1973 28.1076 16.1655 28.1735C16.1337 28.2395 16.0892 28.2985 16.0346 28.3472C15.9243 28.4456 15.7794 28.4961 15.6319 28.4878C15.4843 28.4795 15.3461 28.4129 15.2475 28.3027L12.0208 24.6859C11.9755 24.6333 11.9203 24.5903 11.8582 24.5594C11.7961 24.5284 11.7285 24.5101 11.6593 24.5056C11.59 24.501 11.5206 24.5103 11.455 24.5329C11.3894 24.5555 11.329 24.5909 11.2772 24.6371C11.2255 24.6832 11.1834 24.7393 11.1536 24.8019C11.1237 24.8645 11.1066 24.9324 11.1033 25.0017C11.0999 25.071 11.1104 25.1403 11.1342 25.2055C11.1579 25.2706 11.1944 25.3304 11.2415 25.3814L13.8306 28.2827C13.8974 28.3586 13.9316 28.4578 13.9255 28.5588C13.9195 28.6598 13.8738 28.7542 13.7983 28.8216C13.7229 28.889 13.6239 28.9237 13.5229 28.9184C13.4219 28.913 13.3271 28.8678 13.2593 28.7928C13.2509 28.7833 13.2416 28.774 13.2327 28.7651L10.9113 26.5225L10.9059 26.5183L10.9018 26.5139L6.462 22.4218L9.74541 17.6293L11.9754 18.2074L10.1797 19.9456C10.0205 20.0998 9.89384 20.2845 9.80737 20.4886C9.72089 20.6927 9.67633 20.9122 9.67633 21.1339C9.67633 21.3555 9.72089 21.575 9.80737 21.7791C9.89384 21.9832 10.0205 22.1679 10.1797 22.3221C10.7269 22.8481 11.4368 23.1722 12.1926 23.2411C12.9485 23.3101 13.7053 23.1198 14.3386 22.7015L16.343 21.3652L19.3049 24.6838C19.3537 24.7384 19.3912 24.8021 19.4153 24.8713C19.4394 24.9404 19.4497 25.0136 19.4455 25.0867C19.4413 25.1598 19.4227 25.2314 19.3909 25.2973C19.359 25.3632 19.3145 25.4222 19.2598 25.4709L19.2574 25.4706ZM20.0822 23.988L17.7677 21.3947L23.1704 22.3624L20.1258 24.0453C20.109 24.0268 20.0983 24.0062 20.0822 23.9883V23.988ZM25.3897 23.2749L21.1517 17.0863V17.0842L20.5347 16.1852L22.8211 14.7879L27.5495 21.8508L25.3897 23.2749Z" fill="#049CA6"/>
</g>
<defs>
<clipPath id="clip0_45_159">
<rect width="30" height="30" fill="white"/>
</clipPath>
</defs>
</svg>
