<svg width="30" height="30" viewBox="0 0 30 30" fill="none" xmlns="http://www.w3.org/2000/svg">
<g clip-path="url(#clip0_45_174)">
<path d="M15.625 30H6.875C2.12625 30 0 25.9188 0 21.875C0 16.0712 3.06375 10.0625 7.28375 7.585C7.38 7.52875 7.48875 7.5 7.6 7.5H14.9C15.0113 7.5 15.12 7.52875 15.2163 7.585C16.2238 8.1775 17.1688 8.95625 18.0275 9.9025C18.2587 10.1587 18.24 10.5538 17.9837 10.785C17.7288 11.0175 17.3337 10.9975 17.1 10.7425C16.3687 9.93625 15.5712 9.26625 14.7275 8.75H7.7725C3.985 11.0675 1.25 16.5538 1.25 21.875C1.25 25.0462 2.72375 28.75 6.875 28.75H15.625C19.7763 28.75 21.25 25.0462 21.25 21.875C21.25 20.1287 20.94 18.265 20.3525 16.49C20.2437 16.1613 20.4225 15.8088 20.75 15.7C21.0775 15.5888 21.43 15.77 21.5388 16.0962C22.1675 17.9975 22.5 19.9963 22.5 21.875C22.5 25.9188 20.3738 30 15.625 30Z" fill="#049CA6"/>
<path d="M15.625 8.75H6.875C5.84125 8.75 5 7.90875 5 6.875C5 5.84125 5.84125 5 6.875 5H15.625C16.6588 5 17.5 5.84125 17.5 6.875C17.5 7.90875 16.6588 8.75 15.625 8.75ZM6.875 6.25C6.53 6.25 6.25 6.53125 6.25 6.875C6.25 7.21875 6.53 7.5 6.875 7.5H15.625C15.97 7.5 16.25 7.21875 16.25 6.875C16.25 6.53125 15.97 6.25 15.625 6.25H6.875Z" fill="#049CA6"/>
<path d="M14.375 6.25C14.1912 6.25 14.01 6.17 13.8862 6.015C13.6712 5.745 13.715 5.3525 13.9837 5.13625L17.4512 2.3625C17.7725 2.10625 17.6862 1.765 17.6512 1.66625C17.6175 1.57 17.4725 1.25 17.0612 1.25H5.43871C5.02746 1.25 4.88246 1.57 4.84871 1.6675C4.81371 1.76625 4.72621 2.1075 5.04871 2.36375L8.51621 5.1375C8.78496 5.35375 8.82871 5.74625 8.61371 6.01625C8.39871 6.285 8.00621 6.32875 7.73496 6.11375L4.26746 3.34C3.63621 2.835 3.40121 2.01625 3.66871 1.25375C3.93621 0.4925 4.63121 0 5.43871 0H17.0625C17.87 0 18.565 0.4925 18.8325 1.25375C19.1 2.01625 18.865 2.835 18.2337 3.34L14.7662 6.11375C14.65 6.205 14.5125 6.25 14.375 6.25Z" fill="#049CA6"/>
<path d="M11.875 23.125H8.75C8.405 23.125 8.125 22.845 8.125 22.5C8.125 22.155 8.405 21.875 8.75 21.875H11.875C12.5638 21.875 13.125 21.315 13.125 20.625C13.125 19.935 12.5638 19.375 11.875 19.375H10.625C9.24625 19.375 8.125 18.2538 8.125 16.875C8.125 15.4963 9.24625 14.375 10.625 14.375H13.75C14.095 14.375 14.375 14.655 14.375 15C14.375 15.345 14.095 15.625 13.75 15.625H10.625C9.93625 15.625 9.375 16.185 9.375 16.875C9.375 17.565 9.93625 18.125 10.625 18.125H11.875C13.2538 18.125 14.375 19.2463 14.375 20.625C14.375 22.0038 13.2538 23.125 11.875 23.125Z" fill="#049CA6"/>
<path d="M11.25 25.0001C10.905 25.0001 10.625 24.7201 10.625 24.3751V22.5001C10.625 22.1551 10.905 21.8751 11.25 21.8751C11.595 21.8751 11.875 22.1551 11.875 22.5001V24.3751C11.875 24.7201 11.595 25.0001 11.25 25.0001Z" fill="#049CA6"/>
<path d="M11.25 15.625C10.905 15.625 10.625 15.345 10.625 15V13.125C10.625 12.78 10.905 12.5 11.25 12.5C11.595 12.5 11.875 12.78 11.875 13.125V15C11.875 15.345 11.595 15.625 11.25 15.625Z" fill="#049CA6"/>
<path d="M18.1249 15C17.9649 15 17.8049 14.9387 17.6824 14.8175C17.4387 14.5737 17.4387 14.1775 17.6824 13.9337L20.8074 10.8087C20.9974 10.6187 21.2874 10.5737 21.5287 10.6912L23.6262 11.74L27.6824 7.68373C27.9262 7.43998 28.3224 7.43998 28.5662 7.68373C28.8099 7.92748 28.8099 8.32373 28.5662 8.56748L24.1912 12.9425C23.9999 13.1312 23.7087 13.1775 23.4699 13.06L21.3724 12.0112L18.5662 14.8175C18.4449 14.9387 18.2849 15 18.1249 15Z" fill="#049CA6"/>
<path d="M28.125 12.5C27.78 12.5 27.5 12.22 27.5 11.875V8.75H24.375C24.03 8.75 23.75 8.47 23.75 8.125C23.75 7.78 24.03 7.5 24.375 7.5H28.125C28.47 7.5 28.75 7.78 28.75 8.125V11.875C28.75 12.22 28.47 12.5 28.125 12.5Z" fill="#049CA6"/>
</g>
<defs>
<clipPath id="clip0_45_174">
<rect width="30" height="30" fill="white"/>
</clipPath>
</defs>
</svg>
