<svg width="157" height="40" viewBox="0 0 157 40" fill="none" xmlns="http://www.w3.org/2000/svg">
<path d="M66.3031 29.3751V33.0286H52.3639V9.23157H56.7909V29.3751H66.3031Z" fill="#049CA6"/>
<path d="M82.0372 24.043L79.1407 16.1271C78.9981 15.776 78.8499 15.3591 78.6963 14.8764C78.5427 14.3936 78.3891 13.8725 78.2355 13.3129C78.0929 13.8725 77.9448 14.3991 77.7912 14.8928C77.6376 15.3756 77.4895 15.798 77.3469 16.16L74.4669 24.043H82.0372ZM89.8543 33.0286H86.4312C86.0472 33.0286 85.7345 32.9353 85.4931 32.7488C85.2518 32.5513 85.0707 32.31 84.9501 32.0247L83.1727 27.1699H73.3149L71.5375 32.0247C71.4497 32.2771 71.2797 32.5075 71.0273 32.7159C70.775 32.9244 70.4623 33.0286 70.0893 33.0286H66.6333L75.9974 9.23157H80.5066L89.8543 33.0286Z" fill="#049CA6"/>
<path d="M112.379 9.23157V33.0286H110.108C109.757 33.0286 109.46 32.9737 109.219 32.864C108.989 32.7433 108.764 32.5459 108.544 32.2716L96.1191 16.4069C96.1849 17.131 96.2178 17.8003 96.2178 18.4147V33.0286H92.3175V9.23157H94.6379C94.8244 9.23157 94.9835 9.24255 95.1152 9.26449C95.2578 9.27546 95.3785 9.30837 95.4772 9.36323C95.5869 9.40712 95.6912 9.47843 95.7899 9.57717C95.8887 9.66495 95.9984 9.78563 96.1191 9.93923L108.594 25.8697C108.561 25.4857 108.533 25.1072 108.511 24.7342C108.489 24.3612 108.478 24.0156 108.478 23.6974V9.23157H112.379Z" fill="#049CA6"/>
<path d="M138.809 21.1301C138.809 22.8745 138.518 24.4764 137.937 25.9356C137.355 27.3948 136.538 28.651 135.485 29.7043C134.432 30.7575 133.164 31.5749 131.683 32.1564C130.202 32.7379 128.556 33.0286 126.746 33.0286H117.678V9.23157H126.746C128.556 9.23157 130.202 9.5278 131.683 10.1203C133.164 10.7017 134.432 11.5191 135.485 12.5724C136.538 13.6147 137.355 14.8654 137.937 16.3246C138.518 17.7838 138.809 19.3856 138.809 21.1301ZM134.267 21.1301C134.267 19.8245 134.091 18.656 133.74 17.6247C133.4 16.5824 132.901 15.7047 132.243 14.9916C131.595 14.2675 130.805 13.7134 129.873 13.3294C128.951 12.9454 127.909 12.7534 126.746 12.7534H122.122V29.5068H126.746C127.909 29.5068 128.951 29.3148 129.873 28.9308C130.805 28.5468 131.595 27.9982 132.243 27.2851C132.901 26.5609 133.4 25.6832 133.74 24.6519C134.091 23.6096 134.267 22.4357 134.267 21.1301Z" fill="#049CA6"/>
<path d="M155.389 13.5598C155.258 13.7902 155.115 13.9603 154.962 14.07C154.819 14.1687 154.638 14.2181 154.418 14.2181C154.188 14.2181 153.936 14.1358 153.661 13.9712C153.398 13.7957 153.08 13.6037 152.707 13.3952C152.334 13.1868 151.895 13.0003 151.39 12.8357C150.897 12.6601 150.31 12.5724 149.629 12.5724C149.015 12.5724 148.477 12.6492 148.017 12.8028C147.556 12.9454 147.166 13.1484 146.848 13.4117C146.541 13.675 146.311 13.9932 146.157 14.3662C146.003 14.7283 145.927 15.1287 145.927 15.5676C145.927 16.1271 146.08 16.5934 146.387 16.9664C146.706 17.3395 147.122 17.6576 147.638 17.9209C148.154 18.1843 148.741 18.4201 149.399 18.6286C150.057 18.8371 150.732 19.062 151.423 19.3033C152.114 19.5337 152.789 19.808 153.448 20.1262C154.106 20.4334 154.693 20.8284 155.208 21.3111C155.724 21.7829 156.136 22.3644 156.443 23.0556C156.761 23.7468 156.92 24.5861 156.92 25.5735C156.92 26.6487 156.733 27.6581 156.36 28.6016C155.998 29.5342 155.461 30.3516 154.748 31.0537C154.045 31.7449 153.184 32.2935 152.164 32.6995C151.144 33.0944 149.975 33.2919 148.658 33.2919C147.901 33.2919 147.155 33.2151 146.42 33.0615C145.685 32.9189 144.978 32.7104 144.297 32.4361C143.628 32.1619 142.997 31.8327 142.405 31.4487C141.812 31.0647 141.286 30.6368 140.825 30.1651L142.125 28.0421C142.235 27.8885 142.377 27.7623 142.553 27.6636C142.728 27.5539 142.915 27.499 143.112 27.499C143.387 27.499 143.683 27.6142 144.001 27.8446C144.319 28.064 144.698 28.3109 145.137 28.5852C145.576 28.8595 146.086 29.1118 146.667 29.3422C147.26 29.5616 147.967 29.6713 148.79 29.6713C150.052 29.6713 151.028 29.3751 151.72 28.7827C152.411 28.1792 152.756 27.318 152.756 26.1989C152.756 25.5735 152.597 25.0633 152.279 24.6684C151.972 24.2734 151.56 23.9443 151.045 23.6809C150.529 23.4067 149.942 23.1763 149.284 22.9897C148.626 22.8032 147.956 22.6003 147.276 22.3808C146.596 22.1614 145.927 21.8981 145.268 21.5909C144.61 21.2837 144.023 20.8832 143.507 20.3895C142.992 19.8958 142.575 19.2814 142.257 18.5463C141.949 17.8003 141.796 16.8841 141.796 15.798C141.796 14.9312 141.966 14.0864 142.306 13.2636C142.657 12.4407 143.162 11.7111 143.82 11.0748C144.478 10.4384 145.29 9.92826 146.256 9.54426C147.221 9.16026 148.329 8.96826 149.58 8.96826C150.984 8.96826 152.279 9.18769 153.464 9.62655C154.649 10.0654 155.658 10.6798 156.492 11.4697L155.389 13.5598Z" fill="#049CA6"/>
<circle cx="20" cy="20" r="20" fill="#049CA6"/>
<path fill-rule="evenodd" clip-rule="evenodd" d="M7.04002 16.0724L7.04097 16.0718L7.04131 16.0287L7.38575 15.8633L20.061 8.19803L20.0623 8.20022L20.0634 8.19847L33.0697 16.0761L33.0695 16.0764V17.5507H23.4692V16.0762H30.2303L20.0618 9.92681L14.9856 12.9966L14.8757 30.3942L23.4817 30.4615L23.4709 31.8024L6.91577 31.673L7.04095 16.0739L7.04002 16.0724Z" fill="white"/>
</svg>
