<svg width="40" height="40" viewBox="0 0 40 40" fill="none" xmlns="http://www.w3.org/2000/svg">
<path d="M20.5222 21.8303C20.4482 21.8143 20.3723 21.8114 20.2973 21.8226C19.5461 21.7351 18.9794 21.0995 18.9781 20.3435C18.9781 19.9811 18.6843 19.6873 18.322 19.6873C17.9596 19.6873 17.6658 19.9811 17.6658 20.3435C17.6678 21.606 18.5123 22.712 19.7297 23.0461V23.7022C19.7297 24.0646 20.0234 24.3583 20.3858 24.3583C20.7481 24.3583 21.0419 24.0646 21.0419 23.7022V23.0858C22.447 22.7917 23.402 21.483 23.2544 20.0551C23.1063 18.6272 21.9034 17.5422 20.4678 17.5418C19.6451 17.5418 18.9781 16.8748 18.9781 16.0521C18.9781 15.2294 19.6451 14.5624 20.4678 14.5624C21.2905 14.5624 21.9575 15.2294 21.9575 16.0521C21.9575 16.4145 22.2513 16.7082 22.6136 16.7082C22.976 16.7082 23.2697 16.4145 23.2697 16.0521C23.2678 14.7264 22.3391 13.583 21.0419 13.3094V12.7123C21.0419 12.3499 20.7481 12.0562 20.3858 12.0562C20.0234 12.0562 19.7297 12.3499 19.7297 12.7123V13.3495C18.3758 13.7192 17.5044 15.0337 17.6908 16.4247C17.8773 17.8157 19.0642 18.8541 20.4678 18.8537C21.2796 18.8537 21.9418 19.5038 21.9565 20.3153C21.9716 21.1268 21.3334 21.8008 20.5222 21.8303Z" fill="#049CA6"/>
<path d="M10.9535 18.2482C10.9535 23.5029 15.2131 27.7625 20.4678 27.7625C25.7225 27.7625 29.9821 23.5029 29.9821 18.2482C29.9821 12.9935 25.7225 8.73389 20.4678 8.73389C15.2157 8.73965 10.9596 12.9961 10.9535 18.2482ZM20.4678 10.0461C24.9978 10.0461 28.6699 13.7182 28.6699 18.2482C28.6699 22.7782 24.9978 26.4503 20.4678 26.4503C15.9378 26.4503 12.2657 22.7782 12.2657 18.2482C12.2708 13.7204 15.94 10.0512 20.4678 10.0461Z" fill="#049CA6"/>
<path d="M33.2165 29.38L28.0769 31.8084C27.3673 30.4885 26.006 29.6485 24.508 29.6062L19.7633 29.4758C19.012 29.4543 18.2749 29.264 17.6069 28.919L17.1241 28.6688C14.6521 27.3803 11.7057 27.3835 9.2363 28.6771L9.26641 27.5834C9.27635 27.221 8.9909 26.9193 8.62856 26.9093L3.42577 26.7661C3.06343 26.7562 2.76196 27.0416 2.75203 27.404L2.43775 38.8213C2.42782 39.1836 2.71327 39.4854 3.07561 39.4953L8.2784 39.6385H8.29634C8.65195 39.6385 8.94284 39.3557 8.95245 39.0004L8.96751 38.4541L10.3191 37.7304C10.8497 37.445 11.4699 37.3771 12.0495 37.5411L20.1208 39.8064C20.1349 39.8106 20.149 39.8138 20.1634 39.817C20.7468 39.9391 21.3414 40.0002 21.9373 39.9999C23.1996 40.0006 24.4471 39.7286 25.5943 39.2019C25.6225 39.1891 25.6498 39.174 25.6757 39.157L37.3785 31.5874C37.67 31.3987 37.7642 31.0158 37.5934 30.7134C36.7246 29.1718 34.7976 28.5845 33.2165 29.38ZM3.7676 38.2017L4.04568 28.096L7.93656 28.203L7.65848 38.309L3.7676 38.2017ZM25.0033 38.03C23.5779 38.6733 21.986 38.8508 20.454 38.5378L12.4044 36.2782C11.4984 36.0222 10.5287 36.1283 9.69987 36.5739L9.00916 36.9439L9.19401 30.2248C11.3828 28.7691 14.1898 28.6195 16.5208 29.834L17.0036 30.0842C17.8475 30.5199 18.7782 30.7602 19.7274 30.7877L24.4724 30.9181C25.8051 30.9565 26.937 31.9055 27.2074 33.2113L20.1397 33.0162C19.7774 33.0063 19.4759 33.292 19.4657 33.6541C19.4557 34.0164 19.7415 34.3182 20.1035 34.3281L27.9032 34.5428H27.9215C28.2768 34.5424 28.5674 34.2596 28.577 33.9046C28.585 33.6195 28.5638 33.334 28.5135 33.0534L33.7852 30.5625C33.7903 30.5603 33.7955 30.5577 33.8006 30.5551C34.5483 30.1768 35.4524 30.3033 36.0675 30.8726L25.0033 38.03Z" fill="#049CA6"/>
<path d="M21.1239 6.88921V0.656115C21.1239 0.293778 20.8301 0 20.4678 0C20.1054 0 19.8116 0.293778 19.8116 0.656115V6.88921C19.8116 7.25155 20.1054 7.54533 20.4678 7.54533C20.8301 7.54533 21.1239 7.25155 21.1239 6.88921Z" fill="#049CA6"/>
<path d="M26.0447 6.88928V3.93676C26.0447 3.57442 25.7509 3.28064 25.3885 3.28064C25.0262 3.28064 24.7324 3.57442 24.7324 3.93676V6.88928C24.7324 7.25161 25.0262 7.54539 25.3885 7.54539C25.7509 7.54539 26.0447 7.25161 26.0447 6.88928Z" fill="#049CA6"/>
<path d="M16.203 6.88928V3.93676C16.203 3.57442 15.9092 3.28064 15.5469 3.28064C15.1845 3.28064 14.8907 3.57442 14.8907 3.93676V6.88928C14.8907 7.25161 15.1845 7.54539 15.5469 7.54539C15.9092 7.54539 16.203 7.25161 16.203 6.88928Z" fill="#049CA6"/>
</svg>
