<svg width="40" height="40" viewBox="0 0 40 40" fill="none" xmlns="http://www.w3.org/2000/svg">
<g clip-path="url(#clip0_45_139)">
<path d="M37.9429 17.8089L39.862 15.5328C39.9666 15.4087 40.015 15.2467 39.9958 15.0857L39.1043 7.61495C39.0772 7.38769 38.9202 7.19698 38.7023 7.12667C38.4845 7.05659 38.2457 7.11948 38.0908 7.28808L34.0541 11.6853L26.6769 12.4366C26.3549 12.4693 26.1206 12.757 26.1533 13.0789C26.1861 13.4008 26.4742 13.6355 26.7956 13.6025L34.3944 12.8285C34.5372 12.814 34.6696 12.7476 34.7667 12.6419L38.0917 9.01995L38.8019 14.9719L37.0994 16.9912L33.6544 19.315C33.4813 19.4319 33.3833 19.6321 33.3975 19.8405L33.6652 23.786C33.6846 24.0724 33.9086 24.3025 34.1943 24.3296L36.6476 24.5632L37.905 27.7644L37.3305 29.2447L35.6559 27.01C35.5257 26.8363 35.3103 26.7488 35.0956 26.7826L32.5519 27.1843C32.3422 27.2175 32.1669 27.3614 32.0935 27.5605L31.2693 29.7978L26.5122 30.7621C26.195 30.8264 25.9901 31.1356 26.0544 31.4528C26.1107 31.7307 26.3551 31.9224 26.6281 31.9224C26.6667 31.9224 26.7058 31.9185 26.7451 31.9106L31.8225 30.8813C32.0217 30.8409 32.1857 30.7003 32.2559 30.5096L33.0743 28.2882L34.9298 27.9951L37.0259 30.7922C37.1536 30.9625 37.3634 31.0504 37.5745 31.0214C37.7854 30.9924 37.964 30.8514 38.0411 30.6529L39.0804 27.9751C39.1336 27.8379 39.1333 27.6858 39.0795 27.5489L37.6068 23.7998C37.5261 23.5943 37.3368 23.4517 37.117 23.4307L34.8008 23.2102L34.5896 20.0978L37.8225 17.9171C37.8676 17.8867 37.9081 17.8503 37.9429 17.8089Z" fill="#049CA6"/>
<path d="M23.9418 31.2832L21.9997 31.6769L17.3736 26.8233C17.2278 26.6704 17.0112 26.6077 16.8062 26.6594L13.4496 27.5053L11.9446 25.6531C11.8456 25.5312 11.7018 25.4542 11.5454 25.4392L5.9223 24.9037C5.75832 24.888 5.59472 24.9424 5.47261 25.0535C5.3505 25.1645 5.28082 25.3219 5.28082 25.487V26.7209L3.05636 28.9953L2.3273 25.7974L3.27152 23.3168C3.32847 23.1671 3.32175 23.0006 3.25277 22.8561C3.18386 22.7115 3.05871 22.6015 2.90652 22.5517L1.28425 22.0196L3.25519 13.9664L6.97566 11.6903L10.1325 13.1586C10.4259 13.2952 10.7743 13.1679 10.9108 12.8745C11.0473 12.581 10.9201 12.2326 10.6267 12.0961L7.18503 10.4953C7.00714 10.4125 6.79949 10.4243 6.63214 10.5267L2.43769 13.0928C2.30582 13.1735 2.21113 13.3031 2.17433 13.4532L0.0169097 22.2681C-0.0559028 22.5655 0.112613 22.8688 0.403472 22.9642L1.95777 23.4739L1.16886 25.5463C1.12769 25.6543 1.11949 25.7722 1.14519 25.8849L2.15253 30.3034C2.20019 30.5124 2.35832 30.6789 2.56464 30.7371C2.77097 30.7952 2.99269 30.7361 3.14269 30.5828L6.28566 27.3695C6.39277 27.26 6.45269 27.1129 6.45269 26.9598V26.1314L11.19 26.5826L12.7757 28.5342C12.9193 28.7111 13.1527 28.7886 13.3736 28.7329L16.7611 27.8793L21.3747 32.7198C21.4864 32.837 21.6403 32.9014 21.7989 32.9014C21.8375 32.9014 21.8765 32.8976 21.9153 32.8898L24.1746 32.4318C24.4918 32.3675 24.6967 32.0583 24.6324 31.7411C24.5682 31.4239 24.2593 31.2187 23.9418 31.2832Z" fill="#049CA6"/>
<path d="M24.4767 10.8163C21.6006 10.8163 20.2026 10.4808 18.7226 10.1256C17.3406 9.79386 15.9146 9.45167 13.2809 9.40737V8.73846C13.2809 8.41487 13.0185 8.15253 12.6949 8.15253C12.3714 8.15253 12.109 8.41487 12.109 8.73846V22.2982C12.109 22.6217 12.3714 22.8841 12.6949 22.8841C13.0185 22.8841 13.2809 22.6217 13.2809 22.2982V19.3739C15.7683 19.4164 17.0732 19.7296 18.4491 20.0598C19.9303 20.4153 21.4619 20.7828 24.4767 20.7828C24.8003 20.7828 25.0626 20.5205 25.0626 20.1969V11.4022C25.0626 11.0785 24.8003 10.8163 24.4767 10.8163ZM18.4491 11.265C19.8311 11.5967 21.2571 11.9389 23.8907 11.9832V13.7679C21.4034 13.7255 20.0985 13.4123 18.7226 13.0821C17.3406 12.7503 15.9146 12.4082 13.2809 12.3639V10.5792C15.7683 10.6217 17.0732 10.9348 18.4491 11.265ZM18.7226 18.9203C17.3406 18.5885 15.9146 18.2464 13.2809 18.2021V16.4249C15.7682 16.4673 17.0732 16.7805 18.449 17.1107C18.6423 17.1571 18.8355 17.2034 19.0321 17.249C19.0766 17.2593 19.1211 17.2642 19.1649 17.2642C19.4314 17.2642 19.6724 17.0813 19.7353 16.8106C19.8084 16.4953 19.6121 16.1805 19.2969 16.1074C19.1033 16.0624 18.9129 16.0167 18.7225 15.971C17.3405 15.6394 15.9146 15.2972 13.281 15.2528V13.5357C15.7684 13.5782 17.0733 13.8914 18.4492 14.2216C19.8312 14.5533 21.2572 14.8955 23.8908 14.9398V16.6568C23.1456 16.6439 22.4685 16.6058 21.8343 16.5414C21.5117 16.5085 21.2249 16.7431 21.1921 17.0649C21.1593 17.3869 21.3938 17.6744 21.7156 17.7072C22.3885 17.7757 23.1046 17.8158 23.8908 17.8289V19.606C21.4032 19.5636 20.0985 19.2504 18.7226 18.9203Z" fill="#049CA6"/>
</g>
<defs>
<clipPath id="clip0_45_139">
<rect width="40" height="40" fill="white"/>
</clipPath>
</defs>
</svg>
