<svg width="37" height="37" viewBox="0 0 37 37" fill="none" xmlns="http://www.w3.org/2000/svg">
<path d="M18.4 0C28.5624 0 36.8 8.2376 36.8 18.4C36.8 28.5624 28.5624 36.8 18.4 36.8C8.2376 36.8 0 28.5624 0 18.4C0 8.2376 8.2376 0 18.4 0ZM24.7472 25.9C25.0856 24.8616 26.6712 14.5128 26.8672 12.4736C26.9264 11.856 26.7312 11.4456 26.3488 11.2624C25.8864 11.04 25.2016 11.1512 24.4072 11.4376C23.3176 11.8304 9.388 17.7448 8.5832 18.0872C7.82 18.4112 7.0984 18.7648 7.0984 19.2768C7.0984 19.6368 7.312 19.8392 7.9008 20.0496C8.5136 20.268 10.0568 20.736 10.968 20.9872C11.8456 21.2296 12.8448 21.0192 13.4048 20.6712C13.9984 20.3024 20.8488 15.7184 21.3408 15.3168C21.832 14.9152 22.224 15.4296 21.8224 15.832C21.4208 16.2336 16.7184 20.7976 16.0984 21.4296C15.3456 22.1968 15.88 22.992 16.3848 23.3104C16.9616 23.6736 21.1096 26.456 21.7344 26.9024C22.3592 27.3488 22.9928 27.5512 23.5728 27.5512C24.1528 27.5512 24.4584 26.7872 24.7472 25.9Z" fill="#373C3D"/>
</svg>
