<svg width="20" height="16" viewBox="0 0 20 16" fill="none" xmlns="http://www.w3.org/2000/svg">
<path d="M19.6169 5.36574C19.3678 5.13244 19.0421 4.97691 18.6782 4.97691C18.6973 4.97691 18.7165 4.97691 18.7356 4.97691V2.97448C18.7356 2.15796 18.41 1.4192 17.8736 0.874848C17.3372 0.330498 16.6092 0 15.8046 0H2.93103C2.12644 0 1.39847 0.330498 0.862069 0.874848C0.325671 1.4192 0 2.15796 0 2.97448V13.0255C0 13.842 0.325671 14.5808 0.862069 15.1252C1.39847 15.6695 2.12644 16 2.93103 16H15.8046C16.6092 16 17.3372 15.6695 17.8736 15.1252C18.41 14.5808 18.7356 13.842 18.7356 13.0255V11.0036C18.7165 11.0036 18.6973 11.0036 18.6782 11.0036C19.0421 11.0036 19.3678 10.8481 19.6169 10.6148C19.8467 10.3815 20 10.0316 20 9.66221V6.31835C20 5.94897 19.8467 5.61847 19.6169 5.36574ZM17.682 13.0061C17.682 13.531 17.4713 13.9976 17.1264 14.3475C16.7816 14.6974 16.3218 14.9113 15.8046 14.9113H2.93103C2.41379 14.9113 1.95402 14.6974 1.6092 14.3475C1.26437 13.9976 1.05364 13.531 1.05364 13.0061V2.97448C1.05364 2.44957 1.26437 1.98299 1.6092 1.63305C1.95402 1.28311 2.41379 1.06926 2.93103 1.06926H15.8046C16.3218 1.06926 16.7816 1.28311 17.1264 1.63305C17.4713 1.98299 17.682 2.44957 17.682 2.97448V4.97691H11.7433C10.9387 4.97691 10.2299 5.30741 9.69349 5.83232C9.17624 6.35723 8.85057 7.09599 8.85057 7.91252V8.0486C8.85057 8.86513 9.17624 9.58445 9.69349 10.1288C10.2107 10.6537 10.9387 10.9842 11.7433 10.9842H17.682V13.0061ZM18.9464 9.66221C18.9464 9.73998 18.908 9.81774 18.8697 9.85662C18.8123 9.91495 18.7548 9.93439 18.6782 9.93439H11.7433C11.2452 9.93439 10.7663 9.72053 10.4406 9.39004C10.1149 9.05954 9.90421 8.57351 9.90421 8.06804V7.93196C9.90421 7.40705 10.1149 6.94046 10.4406 6.60996C10.7854 6.26002 11.2452 6.06561 11.7433 6.06561H18.6782C18.7548 6.06561 18.8314 6.1045 18.8697 6.14338C18.9272 6.2017 18.9464 6.26003 18.9464 6.33779V9.66221Z" fill="#049CA6"/>
<path d="M11.8773 7.11542C11.6475 7.11542 11.4367 7.21262 11.2835 7.36815C11.1302 7.52368 11.0344 7.73753 11.0344 7.97082C11.0344 8.20412 11.1302 8.41797 11.2835 8.5735C11.4367 8.72903 11.6475 8.82623 11.8773 8.82623C12.1072 8.82623 12.3179 8.72903 12.4904 8.5735C12.6436 8.41797 12.7394 8.20412 12.7394 7.95138C12.7394 7.71809 12.6436 7.50424 12.4904 7.32927C12.3179 7.21262 12.1072 7.11542 11.8773 7.11542Z" fill="#049CA6"/>
</svg>
